<?xml version="1.0" encoding="utf-8"?>
<!-- Generator: Adobe Illustrator 25.4.1, SVG Export Plug-In . SVG Version: 6.00 Build 0)  -->
<svg version="1.1" id="Ebene_1" xmlns="http://www.w3.org/2000/svg" xmlns:xlink="http://www.w3.org/1999/xlink" x="0px" y="0px"
	 viewBox="0 0 119.2 26" style="enable-background:new 0 0 119.2 26;" xml:space="preserve">
<style type="text/css">
	.st0{fill:#20434F;}
</style>
<g>
	<path class="st0" d="M4.9,14.4c-0.2,0.9-0.5,4.3,2.1,4.5c1.9,0.3,5.3-1.9,6.9-3.1l-0.7-1.4c-2.2,1.3-4,2.4-5.8,2.5
		c-0.3,0-0.6-0.2-0.7-0.5c-0.1-0.4-0.1-1,0.1-1.6L4.9,14.4z"/>
	<path class="st0" d="M17.5,1.3c-2.9-1.9-6.2-1.6-9.1-0.3C4.8,2.6,1.7,5.7,0,8.1l1.6,1.2c0-0.1,3.5-4.3,7.8-5.9
		c2.1-0.8,4.4-1,6.6,0.2c2.8,1.8,1.5,8.4,0,11.4c-2.5,5.1-7.6,6.2-9.8,5.8c-2.2-0.4-3.1-2.1-3.2-3.4c-0.2-3.1,2.5-6,3-6.5L4.2,9.4
		c-4,4-6,12.5,1.8,13.8c4.1,0.4,9.5-1.3,12.5-6.7C20.3,13.1,22.7,4.5,17.5,1.3z"/>
	<path class="st0" d="M117.9,14.8c-2,1.3-4.4,2.7-5.9,2.6c-0.7,0-1.3-0.4-1.5-1.3c2.6-1.6,4.5-3,5.7-4.5l-2-1.5
		c-1.7,2-5.1,4.3-7.9,5.9c-0.2,0.1-0.5,0.3-0.5,0c1.4-2.1,3.3-4.3,4.4-6c1.3-2,1.9-3,2.8-4.5l-2.1-1.1c-1.8,2.7-2.9,4.7-5,7.4
		l-1.8,2.4c-0.4,0.5-1.4,1.2-1.9,1.5c-1.1,0.6-2.1,1.1-2.5,1.3c-0.3,0.1-1,0.4-1.5,0.4c-0.3,0-0.6-0.2-0.6-0.7
		c0-1.2,0.8-2.4,1.7-4.3c3.2-3.4,4.9-5.3,5.3-7.8c0-1.1-0.5-1.7-1.4-1.7c-0.9,0-1.7,0.8-2.2,1.6c-1.6,2.6-2.9,5-3.9,7
		c-1,1.1-2.1,2.3-3.2,3.1c-0.5,0.4-1.5,1.2-2.1,1.7c-0.6,0.4-1.4,0.9-1.9,0.9c-0.3-0.1-0.4-0.2-0.4-0.5c0-0.7,0.1-1.3,0.2-1.7
		l-2-1.2c-1.8,1.9-6.3,4.8-6.6,2.8c-0.1-2.6,5.1-5.4,7.6-3.5l1.5-2c-3.9-2.8-11.2,0.8-11.8,5.2l0,0l0,0c-2,1.1-3.3,1.8-5,1.8
		c-4.2,0,2.5-7.8,4.4-10.1c1.1,0,4.8,0,6.3,0.1l0.1-2.4c-0.7,0-3.8,0-4.4-0.1c0.3-0.4,0.7-0.8,1.1-1.3L79,2.7c-0.9,1-1.7,2-2.5,2.8
		c-6.8-0.1-13.4,0.3-18,0.7l0.2,2.4c4.4-0.4,9.1-0.7,15.8-0.7c-2.3,3-3.8,4.6-5,7.9l0,0c-1.5,0.7-6.5,2.8-6.6,1.5
		c0-0.4,0.3-0.9,0.5-1.4c0.7-1.3,1-2.1,1-2.9c0-1.2-0.8-1.9-2.3-1.9c-1.9-0.1-4.2,1.3-8.9,5.1c-0.1,0-0.1-0.1-0.1-0.2
		c0-0.4,0.2-1,0.5-1.6c0.2-0.4,0.6-0.9,0.6-1.2c0.1-0.9-1-1.3-1.9-1l0,0c0,0,0,0,0,0c-3,0.8-10.2,7.4-13.6,5.4
		c4-1.3,7.5-2.4,7.5-4.7c0-1.3-0.9-2.2-2.9-2.2c-3.3,0-7,2.7-7.5,5.7c-0.7,0.2-2.2,0.4-3.2,0.5c1.5-2,1.8-5.8-1.7-5.7
		c-1.3,0-2.9,0.9-5.1,2.7c0.9-3.6-2.2-4.3-4.7-2.5l0.7,1.4c0.4-0.2,1.9-1.1,1.9,0.2c0,1.1-0.8,2.5-1.6,4.3c-2.5,2.7-4.5,4.7-4.8,7.2
		c0,1,0.5,1.6,1.3,1.6c0.9,0,1.6-0.7,2-1.5c1.5-2.4,2.7-4.6,3.6-6.5c1.4-1.4,4.8-4.7,6.1-4.8c0.4,0,0.7,0.3,0.7,0.8
		c0.1,2.1-2.9,4.4-4.9,3.1l-1.1,2c1.3,1.4,7.2,0.1,11-0.8c0.4,1.2,1.6,1.9,3.6,1.9c3.6,0.1,8.2-2.9,11-4.5c-0.3,1.6-0.4,3.7,1.4,3.6
		c0.6,0,1.3-0.3,2-0.9c4.5-3.7,6.5-5.1,7.6-5.1c0.6,0.1,0.1,0.6-0.3,1.4c-3.8,7,3.8,5.7,8.1,3.6v0c0.4,1.5,1.6,2,3.5,2
		c2.4,0,3.8-0.6,6-1.7v0c0,0,0,0,0,0c1.8,1.8,5,0.7,7.9-1.4c0.1,3,3.1,2.6,5.3,1.3c0.9-0.5,2-1.4,3.2-2.5c-0.5,1.8,0.2,3.8,2.2,3.8
		c1.1,0.2,3.9-1.3,4.5-1.7c0,1,0.6,1.4,1.5,1.4c1.6-0.1,3.3-1.4,4.7-2.1c0.8,1.7,2.2,2.3,3.8,2.3c2.3-0.1,5.1-1.5,7.3-3.1
		L117.9,14.8z M43,12.9c0.3,0,0.5,0.1,0.5,0.4c0,0.7-2.1,1.5-4.7,2.3C39.6,14.1,41.7,12.9,43,12.9z"/>
</g>
</svg>
